<?xml version="1.0" encoding="UTF-8" standalone="no"?>
<!-- Created with Inkscape (http://www.inkscape.org/) -->

<svg
   version="1.1"
   id="svg1"
   width="1254"
   height="1254"
   viewBox="0 0 1254 1254"
   sodipodi:docname="maeumi_base.svg"
   inkscape:version="1.4.4 (dcaf3e7, 2026-05-05)"
   xmlns:inkscape="http://www.inkscape.org/namespaces/inkscape"
   xmlns:sodipodi="http://sodipodi.sourceforge.net/DTD/sodipodi-0.dtd"
   xmlns="http://www.w3.org/2000/svg"
   xmlns:svg="http://www.w3.org/2000/svg">
  <defs
     id="defs1" />
  <sodipodi:namedview
     id="namedview1"
     pagecolor="#ffffff"
     bordercolor="#000000"
     borderopacity="0.25"
     inkscape:showpageshadow="2"
     inkscape:pageopacity="0.0"
     inkscape:pagecheckerboard="0"
     inkscape:deskcolor="#d1d1d1"
     inkscape:zoom="0.62440191"
     inkscape:cx="627.80077"
     inkscape:cy="627.80077"
     inkscape:window-width="1031"
     inkscape:window-height="1030"
     inkscape:window-x="32"
     inkscape:window-y="0"
     inkscape:window-maximized="0"
     inkscape:current-layer="g1" />
  <g
     inkscape:groupmode="layer"
     inkscape:label="Image"
     id="g1">
    <path
       style="fill:#000000"
       d="m 423.46168,956.98741 c -17.23995,-1.5229 -29.27389,-4.78066 -36.39795,-9.85345 l -2.91079,-2.07266 h -54.66137 c -35.76712,0 -55.32997,-0.35782 -56.59563,-1.03518 -2.16212,-1.15713 -2.57138,-4.9277 -0.73426,-6.76482 l 1.2,-1.2 h 51.74897 51.74898 l -1.62007,-3.75 c -1.09885,-2.54354 -1.59676,-6.48464 -1.54762,-12.25 l 0.0724,-8.5 2.57848,-7.36584 c 3.40505,-9.72709 9.45679,-20.95169 19.25063,-35.70559 8.03184,-12.09954 31.69799,-44.34749 44.47198,-60.59838 l 6.81489,-8.6698 -7.13506,-5.8302 c -14.58115,-11.91453 -27.97475,-29.24462 -36.7935,-47.60738 -9.99215,-20.80606 -13.67783,-35.67255 -14.63665,-59.03803 -2.24399,-54.68358 24.12457,-112.77469 67.70541,-149.15809 59.51675,-49.68745 145.64748,-60.39665 216.72049,-26.94627 48.72237,22.93109 84.34092,65.64466 97.49844,116.91958 4.43289,17.27499 5.22413,23.98844 5.18581,44 l -0.0364,19 -2.21838,12.40334 c -4.14658,23.1843 -12.54789,44.02606 -25.64,63.60711 -3.61287,5.40355 -6.56886,9.95869 -6.56886,10.12254 0,0.16385 2.87856,4.70096 6.3968,10.08246 18.08905,27.66907 32.24515,59.85529 41.03191,93.29279 3.85092,14.65445 8.56303,40.62817 8.58495,47.32123 0.008,2.29379 0.28499,5.18303 0.61663,6.42053 l 0.60297,2.25 h 50.94911 c 33.20817,0 51.62264,0.36046 52.88337,1.03519 2.16212,1.15713 2.57138,4.92769 0.73426,6.76481 l -1.2,1.2 H 737.38413 573.20657 l -1.30963,1.57801 c -2.11483,2.54822 -10.41065,6.32911 -17.48865,7.97061 -3.61418,0.83818 -14.5307,1.9469 -24.25893,2.46381 -20.91362,1.11125 -93.79828,1.05228 -106.68768,-0.0863 z m 109.5,-8.93837 c 23.64129,-1.44835 32.79434,-4.8 37.03583,-13.56175 l 2.22793,-4.60228 -1.15852,-3.86679 c -1.73154,-5.77935 -5.23138,-9.26008 -12.79696,-12.72706 -11.7188,-5.37022 -33.56723,-8.7409 -64.14589,-9.89615 l -17.33762,-0.65502 -2.12642,-1.72187 -2.12643,-1.72187 1.26404,-2.77426 1.26404,-2.77426 19.2,0.65808 c 42.36442,1.45203 65.66927,6.42782 76.74483,16.3857 2.78011,2.49957 5.96841,6.33558 7.0851,8.52447 l 2.03034,3.97981 -0.33013,6.38485 -0.33014,6.38486 76.22525,-0.002 76.22525,-0.002 -1.07539,-2.75 c -0.59146,-1.5125 -4.6453,-13.1 -9.00854,-25.75 l -7.93314,-23 1.01185,-2.25 c 1.03859,-2.30947 3.51274,-2.87964 5.90837,-1.36161 0.74451,0.47177 5.48375,12.95238 10.53164,27.73469 l 9.17799,26.87692 24.31864,0.26801 24.31863,0.268 -0.66697,-6.268 c -5.19747,-48.84441 -22.37943,-97.9452 -48.122,-137.51801 -2.95169,-4.5375 -5.72968,-8.25 -6.17331,-8.25 -0.44362,0 -3.26622,2.51723 -6.27243,5.59384 -20.56543,21.04704 -53.53407,38.3788 -88.20255,46.36845 -31.90219,7.35215 -77.26331,7.14218 -111.40723,-0.51568 -12.86185,-2.88468 -31.17174,-8.50582 -39.03818,-11.98473 l -5.31788,-2.35182 v -2.35503 c 0,-2.70937 1.70455,-4.75823 3.95,-4.74788 0.8525,0.004 5.67183,1.56204 10.70962,3.46247 44.37993,16.74167 101.36372,19.68322 147.0454,7.59062 39.02537,-10.33059 72.54001,-32.49301 93.1435,-61.59354 32.98314,-46.58566 37.24035,-113.42473 10.60951,-166.57182 -19.24344,-38.40409 -53.48556,-68.82955 -94.95803,-84.37392 -40.93241,-15.34195 -88.49594,-16.22774 -130,-2.42101 -49.42892,16.443 -86.83358,48.83465 -109.00965,94.40005 -15.64152,32.13881 -21.35491,64.50843 -17.03271,96.5 5.08767,37.6573 25.86133,71.36126 57.76135,93.71419 l 7.89039,5.52895 -0.30469,2.52757 c -0.16758,1.39016 -1.10081,3.02296 -2.07384,3.62843 l -1.76915,1.10086 -3.01805,-1.72483 -3.01804,-1.72484 -18.81028,25.22484 c -39.62369,53.13587 -49.3666,68.95588 -52.18713,84.73865 l -1.25862,7.04281 1.19146,5.16172 c 2.28518,9.89993 8.84603,15.2866 22.9685,18.85787 4.46102,1.1281 11.83684,2.41112 16.39071,2.85117 11.83774,1.1439 92.37675,1.18777 110.77975,0.0603 z M 573.1004,726.20168 c -2.9487,-1.04961 -6.54333,-3.09045 -7.98807,-4.53518 l -2.62679,-2.6268 1.0549,-1.67237 c 2.24239,-3.55492 4.10662,-3.85113 8.54346,-1.35749 3.00279,1.68766 6.34526,2.51019 11.56068,2.84489 8.67781,0.55691 14.1723,-1.15959 20.41978,-6.37922 4.62195,-3.86153 4.36013,-3.77207 6.96306,-2.37902 1.20469,0.64473 1.93426,2.09033 1.93426,3.83263 0,3.14579 -4.37741,7.21713 -12.02017,11.17971 l -4.47983,2.32269 -9,0.33927 -9,0.33927 z m -67.63872,-33.09441 c -5.22989,-2.16322 -8.5,-8.66044 -8.5,-16.88824 0,-8.25094 4.09106,-13.15773 10.97033,-13.15773 11.26888,0 15.49063,24.09043 5.15811,29.43358 -3.3492,1.73194 -4.66618,1.83767 -7.62844,0.61239 z m 152.79806,-19.82749 c -3.56304,-0.55823 -8.07369,-6.53948 -8.85357,-11.74008 -1.12705,-7.51574 0.007,-12.59873 3.50954,-15.7284 6.19982,-5.54001 14.43316,-2.22221 16.94612,6.82881 3.37266,12.14743 -2.22673,22.10853 -11.60209,20.63967 z M 762.16168,500.8613 c -2.14282,-2.14281 -1.28273,-4.79534 3.11051,-9.59284 2.37078,-2.58894 10.05473,-11.34466 17.07545,-19.45716 12.37062,-14.29434 14.7884,-16.17564 17.41404,-13.55 2.92287,2.92287 1.08074,5.88488 -15.40747,24.77412 -16.75036,19.18958 -19.01211,21.0063 -22.19253,17.82588 z"
       id="path1" />
  </g>
</svg>
